<?xml version="1.0" encoding="utf-8"?>
<!-- Generator: Adobe Illustrator 24.0.1, SVG Export Plug-In . SVG Version: 6.00 Build 0)  -->
<svg version="1.1" id="Ebene_1" xmlns="http://www.w3.org/2000/svg" xmlns:xlink="http://www.w3.org/1999/xlink" x="0px" y="0px"
	 viewBox="0 0 834.4 555.9" style="enable-background:new 0 0 834.4 555.9;" xml:space="preserve">
<style type="text/css">
	.st0{fill:#D72305;}
</style>
<g>
	<g>
		<path class="st0" d="M806.9,332.9l-89.1-51.6l85.7-48.9c1.1-0.6,1.9-2.2,1.9-3.4v-26c0-1.5-1.2-1.9-2.3-1.3l-108.3,63.4v-60.5
			c0-1.2-1-2.3-2.3-2.3h-22.8c-1.2,0-2.3,1-2.3,2.3v155.8c0,1.2,1,2.3,2.3,2.3h22.8c1.2,0,2.3-1,2.3-2.3V297l111.4,66.1
			c1.1,0.6,2.6,0.2,2.6-1.3v-25.7C808.9,334.7,808,333.5,806.9,332.9"/>
		<path class="st0" d="M710.4,482.2l27.8-56l27.6,56H710.4z M834.2,553.5l-78.8-155.9c-0.6-1.1-1.6-2-3-2h-25.7c-1.5,0-2.7,1-3.3,2
			l-81,155.8c-0.6,1.1,0,2.5,1.6,2.5h27.2c1.2,0,2.7-0.9,3.3-2l23.6-46.7h79.7l23.4,46.7c0.5,1.1,2,2,3.3,2h28.2
			C834,555.9,834.7,554.6,834.2,553.5"/>
		<path class="st0" d="M778.2,2.3c0-1.2,1-2.3,2.3-2.3h22.8c1.2,0,2.3,1,2.3,2.3v155.8c0,1.2-1,2.3-2.3,2.3h-22.8
			c-1.2,0-2.3-1-2.3-2.3V2.3z"/>
		<path class="st0" d="M763.1,67.9h-68.3V2.3c0-1.2-1-2.3-2.3-2.3h-22.8c-1.2,0-2.3,1-2.3,2.3v65.6h-68.2c-1.2,0-2.3,1-2.3,2.3v20.1
			c0,1.2,1,2.3,2.3,2.3h68.2v65.6c0,1.2,1,2.3,2.3,2.3h22.8c1.2,0,2.3-1,2.3-2.3V92.5h68.3c1.2,0,2.3-1,2.3-2.3V70.1
			C765.3,68.9,764.3,67.9,763.1,67.9"/>
	</g>
	<g>
		<g>
			<path class="st0" d="M2.7,37.8V1.7c0-0.6,0.5-1.1,1.1-1.1h5.7c0.6,0,1.1,0.5,1.1,1.1v13.7c0,0.3,0.2,0.5,0.6,0.5h8.5
				c0.3,0,0.6-0.2,0.6-0.5V1.7c0-0.6,0.5-1.1,1.1-1.1h5.7c0.6,0,1.1,0.5,1.1,1.1v36.1c0,0.6-0.5,1.1-1.1,1.1h-5.7
				c-0.6,0-1.1-0.5-1.1-1.1V24.1c0-0.3-0.2-0.5-0.6-0.5h-8.5c-0.3,0-0.6,0.2-0.6,0.5v13.7c0,0.6-0.8,1.1-1.4,1.1H3.9
				C3.2,38.8,2.7,38.4,2.7,37.8z"/>
			<path class="st0" d="M37.8,35.1c-1.8-2.4-2.5-5.1-2.5-10s0.7-7.5,2.5-10c2-2.7,5.5-4.3,9.5-4.3s7.5,1.6,9.5,4.3
				c1.8,2.4,2.5,5.1,2.5,10s-0.7,7.5-2.5,10c-2,2.7-5.5,4.3-9.5,4.3S39.7,37.8,37.8,35.1z M50.8,31c0.7-0.9,0.9-2.4,0.9-5.9
				s-0.2-4.9-0.9-5.9c-0.7-0.9-1.8-1.3-3.6-1.3s-2.8,0.4-3.6,1.3c-0.7,0.9-0.9,2.4-0.9,5.9s0.2,4.9,0.9,5.9c0.7,0.9,1.8,1.3,3.6,1.3
				C49.1,32.3,50.1,32,50.8,31z"/>
			<path class="st0" d="M67.1,35.1c-1.8-2.4-2.5-5.1-2.5-10s0.7-7.5,2.5-10c2-2.7,5.5-4.3,9.5-4.3c3.5,0,6.3,0.8,8.2,2.5
				c2.2,1.9,3.5,4.9,3.5,8.2c0,0.7-0.4,1.1-1,1.1H82c-0.6,0-1-0.3-1.1-0.9c-0.2-1.5-0.6-2.4-1.2-3c-0.7-0.6-1.7-0.9-3.2-0.9
				c-1.8,0-2.8,0.4-3.6,1.3C72.2,20,72,21.5,72,25s0.2,4.9,0.9,5.8c0.7,0.9,1.8,1.3,3.6,1.3c1.6,0,2.5-0.2,3.1-0.7
				c0.7-0.5,1-1.3,1.3-3.2c0.1-0.5,0.4-0.8,1.1-0.8h5.2c0.6,0,1,0.4,1,1.1c0,3.1-1,5.7-2.7,7.5c-2,2.1-5.1,3.2-9,3.2
				C72.6,39.5,69.1,37.8,67.1,35.1z"/>
			<path class="st0" d="M94.1,37.8V1.1c0-0.6,0.5-1.1,1.1-1.1h5.1c0.6,0,1.1,0.5,1.1,1.1v9.8c0,0.7,0.4,1.3,1.1,1.3
				c0.6,0,2.1-1.3,4.9-1.3c6.1,0,9.9,3.8,9.9,10.1v16.7c0,0.6-0.5,1.1-1.1,1.1h-5.1c-0.6,0-1.1-0.5-1.1-1.1V21.6
				c0-2.4-1.5-3.8-4.3-3.8c-2.7,0-4.3,1.4-4.3,3.5v16.4c0,0.6-0.5,1.1-1.1,1.1h-5.1C94.7,38.8,94.1,38.4,94.1,37.8z"/>
			<path class="st0" d="M122.6,29.8c0-0.6,0.4-1,1.1-1h4.9c0.7,0,1.1,0.4,1.1,1c0,2.3,1.5,3.5,4.5,3.5c2.8,0,4.2-0.8,4.2-2.4
				c0-1.4-1.3-2.1-5.7-3.1c-6.2-1.3-9.1-4.2-9.1-9c0-4.7,4.4-7.9,10.6-7.9c6.6,0,10.8,3.3,10.8,8.6c0,0.6-0.4,1-1.1,1h-4.6
				c-0.7,0-1.1-0.4-1.1-1c0-1.7-1.4-2.6-3.9-2.6c-2.1,0-3.4,0.8-3.4,2.1c0,1.4,1,1.9,5.8,3.1c6.8,1.6,9.1,3.7,9.1,8.6
				c0,5.5-4.3,8.7-11.6,8.7C126.9,39.5,122.6,35.8,122.6,29.8z"/>
			<path class="st0" d="M153,35.1c-1.8-2.4-2.5-5.1-2.5-10s0.7-7.5,2.5-10c2-2.7,5.5-4.3,9.5-4.3c3.5,0,6.3,0.8,8.2,2.5
				c2.2,1.9,3.5,4.9,3.5,8.2c0,0.7-0.4,1.1-1,1.1H168c-0.6,0-1-0.3-1.1-0.9c-0.2-1.5-0.6-2.4-1.2-3c-0.7-0.6-1.7-0.9-3.2-0.9
				c-1.8,0-2.8,0.4-3.6,1.3c-0.7,0.9-0.9,2.4-0.9,5.9s0.2,4.9,0.9,5.8c0.7,0.9,1.8,1.3,3.6,1.3c1.6,0,2.5-0.2,3.1-0.7
				c0.7-0.5,1-1.3,1.3-3.2c0.1-0.5,0.4-0.8,1.1-0.8h5.2c0.6,0,1,0.4,1,1.1c0,3.1-1,5.7-2.7,7.5c-2,2.1-5.1,3.2-9,3.2
				C158.5,39.5,155,37.8,153,35.1z"/>
			<path class="st0" d="M180,37.8V1.1c0-0.6,0.5-1.1,1.1-1.1h5.1c0.6,0,1.1,0.5,1.1,1.1v9.8c0,0.7,0.4,1.3,1.1,1.3
				c0.6,0,2.1-1.3,4.9-1.3c6.1,0,9.9,3.8,9.9,10.1v16.7c0,0.6-0.5,1.1-1.1,1.1H197c-0.6,0-1.1-0.5-1.1-1.1V21.6
				c0-2.4-1.5-3.8-4.3-3.8c-2.7,0-4.3,1.4-4.3,3.5v16.4c0,0.6-0.5,1.1-1.1,1.1h-5.1C180.5,38.8,180,38.4,180,37.8z"/>
			<path class="st0" d="M233.5,12.6v25.1c0,0.6-0.5,1.1-1.1,1.1h-2.8c-0.4,0-0.7-0.1-1-0.4c-0.4-0.6-0.7-1.4-1.5-1.4
				c-1.4,0-2.3,2.4-6.8,2.4c-6.1,0-9.9-3.8-9.9-10.1V12.6c0-0.6,0.5-1.1,1.1-1.1h5.1c0.6,0,1.1,0.5,1.1,1.1v16.2
				c0,2.4,1.6,3.8,4.3,3.8s4.3-1.4,4.3-3.5V12.6c0-0.6,0.5-1.1,1.1-1.1h5.1C233,11.5,233.5,12,233.5,12.6z"/>
			<path class="st0" d="M240.8,37.8V1.1c0-0.6,0.5-1.1,1.1-1.1h5.1c0.6,0,1.1,0.5,1.1,1.1v36.7c0,0.6-0.5,1.1-1.1,1.1h-5
				C241.4,38.8,240.8,38.4,240.8,37.8z"/>
			<path class="st0" d="M257.1,35.1c-1.8-2.4-2.5-5.1-2.5-10s0.7-7.5,2.5-10c2-2.7,5.5-4.3,9.5-4.3c7.5,0,11.6,4.6,11.6,13v2.4
				c0,0.6-0.5,1.1-1.1,1.1h-14.7c-0.3,0-0.6,0.2-0.6,0.5c0,3.6,1.5,5.3,4.8,5.3c2.3,0,3.7-0.8,4.4-2.6c0.2-0.6,0.7-0.9,1.3-0.9h4.8
				c0.7,0,1.1,0.5,1,1.2c-1.4,5.5-5.6,8.6-11.5,8.6C262.6,39.5,259.1,37.8,257.1,35.1z M270.9,21.9c0.3,0,0.6-0.2,0.6-0.5
				c0-2.7-2.1-4.7-4.8-4.7c-3,0-5,1.9-5,4.7c0,0.3,0.2,0.5,0.6,0.5C262.2,21.9,270.9,21.9,270.9,21.9z"/>
			<path class="st0" d="M296.8,37.8V1.7c0-0.6,0.5-1.1,1.1-1.1h5.6c0.6,0,1.1,0.5,1.1,1.1v13.4c0,0.2,0.1,0.3,0.3,0.3
				c0.1,0,0.2-0.1,0.4-0.3l9.5-13.9c0.2-0.3,0.4-0.5,1.3-0.5h6.2c0.7,0,1.2,0.5,1.2,1.2c0,0.3-0.1,0.6-0.2,0.8L312,18.2
				c-0.2,0.3-0.3,0.6-0.3,0.9s0.1,0.6,0.3,0.9l11.5,16.6c0.2,0.3,0.3,0.6,0.3,1c0,0.7-0.5,1.2-1.4,1.2h-6.1c-0.9,0-1.1-0.4-1.5-0.9
				l-9.3-14.6c-0.2-0.3-0.3-0.5-0.5-0.5s-0.3,0.1-0.3,0.3v14.6c0,0.6-0.5,1.1-1.1,1.1H298C297.3,38.8,296.8,38.4,296.8,37.8z"/>
			<path class="st0" d="M325.8,30.4c0-4.3,3.2-8.5,9.8-8.5h5.8c0.3,0,0.6-0.2,0.6-0.5v-0.9c0-2.2-1.9-3.3-4.4-3.3
				c-1.2,0-3.5,0.3-3.9,1.8c-0.2,0.9-0.5,1-1.5,1H328c-0.6,0-1.1-0.5-1.1-1.1c0-4.1,4.1-8,11-8s11.4,3.5,11.4,9.9v16.9
				c0,0.6-0.5,1.1-1.1,1.1h-2.8c-0.3,0-0.7-0.1-0.8-0.4c-0.2-0.4-0.6-1.1-1.3-1.1c-1,0-2.6,2.1-7.4,2.1
				C329.9,39.5,325.8,36.2,325.8,30.4z M342.2,29.6v-1.3c0-0.3-0.2-0.5-0.6-0.5h-5.3c-2.5,0-3.4,1.3-3.4,2.7c0,2,1.7,2.9,3.8,2.9
				C339.7,33.3,342.2,32.4,342.2,29.6z"/>
			<path class="st0" d="M356.3,37.8V12.6c0-0.6,0.5-1.1,1.1-1.1h2.8c0.5,0,1,0.3,1.2,0.7c0.3,0.9,0.6,2.3,1.5,2.3c1.8,0,2.5-3,8.1-3
				h1.9c0.6,0,1.1,0.5,1.1,1.1v5.2c0,0.6-0.5,1.1-1.1,1.1h-2c-4.3,0-7.4,1.9-7.4,6.1v12.8c0,0.6-0.5,1.1-1.1,1.1h-5.1
				C356.8,38.8,356.3,38.4,356.3,37.8z"/>
			<path class="st0" d="M378.8,37.8V1.1c0-0.6,0.5-1.1,1.1-1.1h5.1c0.6,0,1.1,0.5,1.1,1.1v36.7c0,0.6-0.5,1.1-1.1,1.1h-5.1
				C379.3,38.8,378.8,38.4,378.8,37.8z"/>
			<path class="st0" d="M391.5,29.8c0-0.6,0.5-1,1.1-1h4.9c0.7,0,1.1,0.4,1.1,1c0,2.3,1.5,3.5,4.5,3.5c2.8,0,4.2-0.8,4.2-2.4
				c0-1.4-1.3-2.1-5.7-3.1c-6.2-1.3-9.1-4.2-9.1-9c0-4.7,4.4-7.9,10.6-7.9c6.6,0,10.8,3.3,10.8,8.6c0,0.6-0.5,1-1.1,1h-4.6
				c-0.7,0-1.1-0.4-1.1-1c0-1.7-1.4-2.6-3.9-2.6c-2,0-3.4,0.8-3.4,2.1c0,1.4,1,1.9,5.8,3.1c6.8,1.6,9.1,3.7,9.1,8.6
				c0,5.5-4.3,8.7-11.6,8.7C395.9,39.5,391.5,35.8,391.5,29.8z"/>
			<path class="st0" d="M420.5,37.8V12.6c0-0.6,0.5-1.1,1.1-1.1h2.8c0.5,0,1,0.3,1.2,0.7c0.3,0.9,0.6,2.3,1.5,2.3c1.8,0,2.5-3,8.1-3
				h1.9c0.6,0,1.1,0.5,1.1,1.1v5.2c0,0.6-0.5,1.1-1.1,1.1h-2c-4.3,0-7.4,1.9-7.4,6.1v12.8c0,0.6-0.5,1.1-1.1,1.1h-5.1
				C421,38.8,420.5,38.4,420.5,37.8z"/>
			<path class="st0" d="M466,12.6v25.1c0,0.6-0.5,1.1-1.1,1.1H462c-0.5,0-0.7-0.1-1-0.4c-0.5-0.6-0.7-1.4-1.5-1.4
				c-1.4,0-2.3,2.4-6.8,2.4c-6.1,0-10-3.8-10-10.1V12.6c0-0.6,0.5-1.1,1.1-1.1h5.1c0.6,0,1.1,0.5,1.1,1.1v16.2
				c0,2.4,1.6,3.8,4.3,3.8s4.3-1.4,4.3-3.5V12.6c0-0.6,0.5-1.1,1.1-1.1h5.1C465.4,11.5,466,12,466,12.6z"/>
			<path class="st0" d="M473.4,37.8V1.1c0-0.6,0.5-1.1,1.1-1.1h5.1c0.6,0,1.1,0.5,1.1,1.1v9.8c0,0.7,0.4,1.3,1.1,1.3
				c0.6,0,2-1.3,4.9-1.3c6.1,0,10,3.8,10,10.1v16.7c0,0.6-0.5,1.1-1.1,1.1h-5.1c-0.6,0-1.1-0.5-1.1-1.1V21.6c0-2.4-1.5-3.8-4.3-3.8
				c-2.7,0-4.3,1.4-4.3,3.5v16.4c0,0.6-0.5,1.1-1.1,1.1h-5.1C473.9,38.8,473.4,38.4,473.4,37.8z"/>
			<path class="st0" d="M505.2,35.1c-1.8-2.4-2.5-5.1-2.5-10s0.7-7.5,2.5-10c2-2.7,5.5-4.3,9.5-4.3c7.5,0,11.6,4.6,11.6,13v2.4
				c0,0.6-0.5,1.1-1.1,1.1h-14.7c-0.3,0-0.6,0.2-0.6,0.5c0,3.6,1.5,5.3,4.8,5.3c2.3,0,3.7-0.8,4.4-2.6c0.2-0.6,0.7-0.9,1.3-0.9h4.8
				c0.7,0,1.1,0.5,1,1.2c-1.4,5.5-5.6,8.6-11.5,8.6C510.8,39.5,507.2,37.8,505.2,35.1z M519,21.9c0.3,0,0.6-0.2,0.6-0.5
				c0-2.7-2.1-4.7-4.8-4.7c-3,0-5,1.9-5,4.7c0,0.3,0.2,0.5,0.6,0.5C510.4,21.9,519,21.9,519,21.9z"/>
		</g>
		<g>
			<path class="st0" d="M3.1,88.3v-26c0-0.6,0.5-1.1,1.1-1.1h1.4c0.6,0,1.1,0.5,1.1,1.1v26c0,4.4,3.8,8.3,8.6,8.3s8.6-3.9,8.6-8.3
				v-26c0-0.6,0.5-1.1,1.1-1.1h1.4c0.6,0,1.1,0.5,1.1,1.1v26c0,6.5-5.5,11.8-12.2,11.8S3.1,94.8,3.1,88.3z"/>
			<path class="st0" d="M36.3,98.4V73.2c0-0.6,0.5-1.1,1.1-1.1h0.9c0.3,0,0.6,0.2,0.8,0.4c0.3,0.5,0.6,1.1,1.1,1.1c1.5,0,2-2,7.6-2
				c5.4,0,9.6,3.1,9.6,9.1v17.7c0,0.6-0.5,1.1-1.1,1.1h-1.1c-0.6,0-1.1-0.5-1.1-1.1V81.2c0-4.4-3.1-6.3-7.2-6.3s-7.2,2-7.2,6.3v17.2
				c0,0.6-0.5,1.1-1.1,1.1h-1.1C36.8,99.5,36.3,99,36.3,98.4z"/>
			<path class="st0" d="M64.8,64.8v-3.2c0-0.4,0.4-0.9,0.9-0.9H69c0.5,0,0.9,0.4,0.9,0.9v3.2c0,0.5-0.4,0.9-0.9,0.9h-3.3
				C65.2,65.7,64.8,65.3,64.8,64.8z M67.9,99.5h-1.1c-0.8,0-1.1-0.5-1.1-1.1V73.2c0-0.6,0.3-1.1,1.1-1.1h1.1c0.8,0,1.1,0.5,1.1,1.1
				v25.1C69.1,99,68.7,99.5,67.9,99.5z"/>
			<path class="st0" d="M84.5,98.7L74.6,74c-0.2-0.4-0.2-0.7-0.2-0.9c0-0.5,0.4-0.9,1.1-0.9H77c0.5,0,0.8,0.2,1.1,0.8l8.5,22
				c0.1,0.3,0.3,0.4,0.4,0.4s0.4-0.1,0.5-0.4L96,73c0.2-0.6,0.6-0.8,1.1-0.8h1.5c0.7,0,1.1,0.4,1.1,0.9c0,0.2-0.1,0.5-0.2,0.9
				l-9.8,24.7c-0.2,0.6-0.6,0.8-1.1,0.8h-2.9C85,99.5,84.7,99.2,84.5,98.7z"/>
			<path class="st0" d="M105.6,95.9c-1.8-2.7-2.4-5.3-2.4-10.1c0-4.4,0.7-7,2.6-9.9c1.9-2.8,5.1-4.3,9-4.3c7.1,0,11.5,4.6,11.5,12
				V86c0,0.6-0.5,1.1-1.1,1.1h-17.8c-0.3,0-0.6,0.2-0.6,0.6c0,5.8,3,9.1,8.2,9.1c3.6,0,6.5-1.4,7.6-5.1c0.2-0.6,0.7-0.9,1.3-0.9h1.1
				c0.7,0,1.1,0.4,1,1.1c-0.7,4.9-5.2,8.2-11,8.2C110.6,100,107.4,98.6,105.6,95.9z M122.1,84.1c0.3,0,0.6-0.2,0.6-0.6
				c0-5.6-2.8-8.7-7.8-8.7c-4.9,0-8.1,3.3-8.1,8.7c0,0.3,0.2,0.6,0.6,0.6H122.1z"/>
			<path class="st0" d="M133.7,98.4V73.2c0-0.6,0.5-1.1,1.1-1.1h0.7c0.6,0,1,0.3,1.1,1.1c0.2,0.7,0.2,1.9,1,1.9c1.5,0,2.5-3,7.7-3
				h0.7c0.6,0,1.1,0.5,1.1,1.1v1.2c0,0.6-0.5,1.1-1.1,1.1h-0.7c-3.6,0-8.3,2-8.3,9.2v13.7c0,0.6-0.5,1.1-1.1,1.1h-1.1
				C134.2,99.5,133.7,99,133.7,98.4z"/>
			<path class="st0" d="M149.4,90.6c0-0.6,0.5-1.1,1.1-1.1h1.1c0.6,0,1.1,0.5,1.1,1.1c0,4,2.8,6.4,7.6,6.4c4.7,0,7.4-1.8,7.4-4.8
				s-1.8-4.3-8.2-5.5c-6.3-1.2-9-3.5-9-7.7c0-4.3,4.2-7.3,9.9-7.3c6.2,0,10.1,3.1,10.1,8.2c0,0.6-0.5,1.1-1.1,1.1h-1.1
				c-0.6,0-1.1-0.5-1.1-1.1c0-3.5-2.2-5.2-6.6-5.2c-4,0-6.4,1.6-6.4,4.3c0,2.5,1.6,3.6,8,5c7,1.6,9.1,3.5,9.1,8.3s-4.3,7.9-10.9,7.9
				C153.6,100,149.4,96.4,149.4,90.6z"/>
			<path class="st0" d="M177.2,64.8v-3.2c0-0.4,0.4-0.9,0.9-0.9h3.3c0.5,0,0.9,0.4,0.9,0.9v3.2c0,0.5-0.4,0.9-0.9,0.9h-3.3
				C177.6,65.7,177.2,65.3,177.2,64.8z M180.3,99.5h-1.1c-0.8,0-1.1-0.5-1.1-1.1V73.2c0-0.6,0.3-1.1,1.1-1.1h1.1
				c0.8,0,1.1,0.5,1.1,1.1v25.1C181.4,99,181.1,99.5,180.3,99.5z"/>
			<path class="st0" d="M193.2,90.7V76.2c0-0.3-0.2-0.6-0.6-0.6H188c-0.6,0-1.1-0.5-1.1-1.1v-1c0-0.6,0.5-1.1,1.1-1.1h4.6
				c0.3,0,0.6-0.2,0.6-0.6v-8.5c0-0.6,0.5-1.1,1.1-1.1h1.1c0.6,0,1.1,0.5,1.1,1.1v8.5c0,0.3,0.2,0.6,0.6,0.6h7.2
				c0.6,0,1.1,0.5,1.1,1.1v1c0,0.6-0.5,1.1-1.1,1.1h-7.2c-0.3,0-0.6,0.2-0.6,0.6v14.5c0,3.7,1.4,5.5,5.4,5.5h2.9
				c0.6,0,1.1,0.5,1.1,1.1v1c0,0.6-0.5,1.1-1.1,1.1H202C196.1,99.5,193.2,97,193.2,90.7z"/>
			<path class="st0" d="M215.2,109.5c0-0.3,0.1-0.6,0.2-0.8l4-10.4c0.1-0.3,0.2-0.4,0.2-0.6s-0.1-0.3-0.2-0.6L208.9,74
				c-0.2-0.4-0.2-0.7-0.2-0.9c0-0.5,0.4-0.9,1.1-0.9h1.6c0.5,0,0.8,0.2,1.1,0.8l8.7,20c0.1,0.3,0.2,0.3,0.3,0.3s0.2-0.1,0.3-0.3
				l7.6-20c0.3-0.7,0.6-0.8,1.1-0.8h1.6c0.7,0,1.1,0.4,1.1,0.9c0,0.2-0.1,0.5-0.2,0.9l-14.2,35.6c-0.2,0.6-0.6,0.8-1.1,0.8h-1.3
				C215.5,110.4,215.2,110.1,215.2,109.5z"/>
			<path class="st0" d="M250.4,95.1c-1.5-2.3-2-4.4-2-9.3s0.4-7.1,2-9.3c2.1-3.1,5.5-4.9,9.6-4.9s7.6,1.8,9.6,4.9
				c1.5,2.2,2,4.4,2,9.3s-0.5,7.1-2,9.3c-2,3.1-5.5,4.9-9.6,4.9S252.4,98.2,250.4,95.1z M267,92.6c0.8-1.6,1-3.1,1-6.8
				s-0.2-5.2-1-6.8c-1.3-2.6-3.9-4.2-7-4.2s-5.7,1.6-7,4.2c-0.8,1.6-1,3.1-1,6.8s0.2,5.2,1,6.8c1.3,2.6,3.9,4.2,7,4.2
				S265.8,95.2,267,92.6z"/>
			<path class="st0" d="M281.5,98.4V76.2c0-0.3-0.2-0.6-0.6-0.6h-5c-0.6,0-1.1-0.5-1.1-1.1v-1c0-0.6,0.5-1.1,1.1-1.1h5
				c0.3,0,0.6-0.2,0.6-0.6v-1c0-6.3,3.8-10.2,9.7-10.2h0.3c0.6,0,1.1,0.5,1.1,1.1v0.9c0,0.6-0.5,1.1-1.1,1.1h-0.3
				c-3.9,0-6.3,2.7-6.3,7.2v1c0,0.3,0.2,0.6,0.6,0.6h6.5c0.6,0,1.1,0.5,1.1,1.1v1c0,0.6-0.5,1.1-1.1,1.1h-6.5
				c-0.3,0-0.6,0.2-0.6,0.6v22.2c0,0.6-0.5,1.1-1.1,1.1h-1.1C282,99.5,281.5,99,281.5,98.4z"/>
		</g>
		<g>
			<path class="st0" d="M0,159.2c0-0.2,0.1-0.4,0.1-0.6l10.8-36c0.2-0.6,0.6-0.8,1.1-0.8h2.8c0.5,0,0.9,0.3,1.1,0.8l10.8,36
				c0.1,0.2,0.1,0.4,0.1,0.6c0,0.4-0.4,0.8-1.2,0.8h-1.4c-0.5,0-0.9-0.3-1.1-0.8l-2.8-9.2c-0.2-0.6-0.6-0.8-1.1-0.8H7.6
				c-0.5,0-0.9,0.2-1.1,0.8l-2.8,9.2c-0.2,0.6-0.6,0.8-1.1,0.8H1.2C0.4,160.1,0,159.7,0,159.2z M18.4,145.8c0.3,0,0.6-0.2,0.5-0.6
				l-5.2-18.6c-0.1-0.2-0.1-0.3-0.2-0.3h-0.1c-0.1,0-0.2,0.1-0.2,0.3L8,145.2c-0.1,0.4,0.1,0.6,0.4,0.6H18.4z"/>
			<path class="st0" d="M32.5,169.9v-36.1c0-0.6,0.5-1.1,1.1-1.1h0.9c0.4,0,0.6,0.1,0.8,0.5c0.4,0.7,0.8,1,1.4,1
				c1.4,0,2-2.1,6.5-2.1c4,0,7.3,1.6,8.9,4.5c1.4,2.6,1.9,5.2,1.9,9.7c0,4.7-0.5,7.3-1.9,9.7c-1.7,2.8-4.9,4.5-8.9,4.5
				c-4.4,0-5.1-1.6-6.3-1.6c-0.8,0-1.1,0.5-1.1,1.6v9.3c0,0.6-0.5,1.1-1.1,1.1h-1.1C33,171,32.5,170.5,32.5,169.9z M49.8,153.2
				c0.6-1.7,0.8-3.4,0.8-6.8c0-3.4-0.2-5.3-0.8-6.8c-1.3-2.9-3.2-4.2-6.5-4.2c-3.2,0-5.2,1.3-6.5,4.2c-0.6,1.5-0.8,3.3-0.8,6.8
				c0,3.4,0.2,5.1,0.8,6.8c1.2,2.9,3.2,4.2,6.5,4.2S48.5,156.1,49.8,153.2z"/>
			<path class="st0" d="M61.6,169.9v-36.1c0-0.6,0.5-1.1,1.1-1.1h0.9c0.4,0,0.6,0.1,0.8,0.5c0.4,0.7,0.8,1,1.4,1
				c1.4,0,2-2.1,6.5-2.1c4,0,7.3,1.6,8.9,4.5c1.4,2.6,1.9,5.2,1.9,9.7c0,4.7-0.5,7.3-1.9,9.7c-1.7,2.8-4.9,4.5-8.9,4.5
				c-4.4,0-5.1-1.6-6.3-1.6c-0.8,0-1.1,0.5-1.1,1.6v9.3c0,0.6-0.5,1.1-1.1,1.1h-1.1C62.1,171,61.6,170.5,61.6,169.9z M78.8,153.2
				c0.6-1.7,0.8-3.4,0.8-6.8c0-3.4-0.2-5.3-0.8-6.8c-1.3-2.9-3.2-4.2-6.5-4.2c-3.2,0-5.2,1.3-6.5,4.2c-0.6,1.5-0.8,3.3-0.8,6.8
				c0,3.4,0.2,5.1,0.8,6.8c1.2,2.9,3.2,4.2,6.5,4.2C75.7,157.4,77.7,156.1,78.8,153.2z"/>
			<path class="st0" d="M90.7,159v-36.6c0-0.6,0.5-1.1,1.1-1.1h1.1c0.6,0,1.1,0.5,1.1,1.1V159c0,0.6-0.5,1.1-1.1,1.1h-1.1
				C91.2,160.1,90.7,159.6,90.7,159z"/>
			<path class="st0" d="M101.7,125.4v-3.2c0-0.4,0.4-0.9,0.9-0.9h3.3c0.5,0,0.9,0.4,0.9,0.9v3.2c0,0.5-0.4,0.9-0.9,0.9h-3.3
				C102.1,126.2,101.7,125.9,101.7,125.4z M104.8,160.1h-1.1c-0.8,0-1.1-0.5-1.1-1.1v-25.1c0-0.6,0.3-1.1,1.1-1.1h1.1
				c0.8,0,1.1,0.5,1.1,1.1V159C106,159.6,105.6,160.1,104.8,160.1z"/>
			<path class="st0" d="M115.8,156.5c-1.8-2.7-2.4-5.3-2.4-10.1c0-4.4,0.7-7,2.6-9.9c1.9-2.8,5.1-4.3,9-4.3c7.1,0,11.5,4.6,11.5,12
				v2.5c0,0.6-0.5,1.1-1.1,1.1h-17.8c-0.3,0-0.6,0.2-0.6,0.6c0,5.9,3,9.1,8.2,9.1c3.6,0,6.5-1.4,7.6-5.1c0.2-0.6,0.7-0.9,1.3-0.9
				h1.1c0.7,0,1.1,0.4,1,1.1c-0.7,4.9-5.2,8.2-11,8.2C120.9,160.6,117.7,159.2,115.8,156.5z M132.4,144.6c0.3,0,0.6-0.2,0.6-0.6
				c0-5.6-2.8-8.7-7.8-8.7c-4.9,0-8.1,3.3-8.1,8.7c0,0.3,0.2,0.6,0.6,0.6H132.4z"/>
			<path class="st0" d="M144.9,156.1c-1.4-2.5-1.9-5-1.9-9.7s0.5-7.3,1.9-9.7c1.6-2.8,4.9-4.5,8.9-4.5c4.4,0,5.1,1.6,6.3,1.6
				c0.8,0,1.1-0.5,1.1-1.6v-9.8c0-0.6,0.5-1.1,1.1-1.1h1.1c0.6,0,1.1,0.5,1.1,1.1V159c0,0.6-0.5,1.1-1.1,1.1h-0.9
				c-0.4,0-0.6-0.1-0.9-0.5c-0.4-0.7-0.9-1-1.4-1c-1.4,0-2,2.1-6.5,2.1C149.8,160.6,146.5,159,144.9,156.1z M160.3,153.2
				c0.6-1.5,0.9-3.2,0.9-6.8c0-3.4-0.2-5.1-0.9-6.8c-1.2-2.9-3.2-4.2-6.5-4.2s-5.3,1.3-6.5,4.2c-0.6,1.7-0.9,3.4-0.9,6.8
				c0,3.4,0.2,5.3,0.9,6.8c1.3,2.9,3.2,4.2,6.5,4.2S159,156.1,160.3,153.2z"/>
			<path class="st0" d="M183.6,149.1v-0.9c0-0.6,0.5-1.1,1.1-1.1h1.5c0.6,0,1.1,0.5,1.1,1.1v0.9c0,5,3.5,8,8.5,8
				c4.9,0,8.4-2.5,8.4-7.4c0-5-3.8-6.7-9.3-8.2c-4.9-1.4-10.2-4-10.2-10.6s5.7-9.6,11.4-9.6c6.4,0,11.1,3.8,11.1,10.4v0.7
				c0,0.6-0.5,1.1-1.1,1.1h-1.4c-0.6,0-1.1-0.5-1.1-1.1v-0.7c0-4.6-3.2-6.9-7.4-6.9c-4.5,0-7.6,2-7.6,6.1c0,4.6,4.5,6.3,9.7,7.8
				c5.3,1.5,9.8,4.3,9.8,11c0,7.1-5.9,10.9-12.2,10.9C188.8,160.6,183.6,156.7,183.6,149.1z"/>
			<path class="st0" d="M215.8,155.7c-1.8-2.7-2-5.4-2-9.3s0.2-6.6,2-9.3c2-2.9,5.3-4.9,9.6-4.9c3.1,0,5.9,0.8,7.7,2.5
				c1.9,1.8,3,4.3,3,6.8c0,0.6-0.3,1.1-1,1.1h-1.4c-0.5,0-1.1-0.3-1.1-0.9c0-1.8-0.7-3.6-2.1-4.8c-1.3-1-3-1.5-5.1-1.5
				c-3.1,0-5.7,1.5-7,4.2c-0.9,1.8-1,3.6-1,6.8s0.2,5,1,6.8c1.3,2.7,3.9,4.2,7,4.2c2.6,0,4.4-0.8,5.6-2c1.1-1.2,1.6-2.8,1.6-4.2
				c0-0.7,0.6-0.9,1.1-0.9h1.3c0.6,0,1.1,0.5,1.1,1.1c0,2.2-0.9,4.5-2.4,6.2c-1.9,2-4.8,3.1-8.2,3.1
				C221.1,160.6,217.8,158.6,215.8,155.7z"/>
			<path class="st0" d="M242.2,125.4v-3.2c0-0.4,0.4-0.9,0.9-0.9h3.3c0.5,0,0.9,0.4,0.9,0.9v3.2c0,0.5-0.4,0.9-0.9,0.9h-3.3
				C242.6,126.2,242.2,125.9,242.2,125.4z M245.3,160.1h-1.1c-0.8,0-1.1-0.5-1.1-1.1v-25.1c0-0.6,0.3-1.1,1.1-1.1h1.1
				c0.8,0,1.1,0.5,1.1,1.1V159C246.5,159.6,246.1,160.1,245.3,160.1z"/>
			<path class="st0" d="M256.4,156.5c-1.8-2.7-2.5-5.3-2.5-10.1c0-4.4,0.7-7,2.6-9.9c1.9-2.8,5.1-4.3,9-4.3c7.1,0,11.5,4.6,11.5,12
				v2.5c0,0.6-0.5,1.1-1.1,1.1H258c-0.3,0-0.6,0.2-0.6,0.6c0,5.9,3,9.1,8.2,9.1c3.6,0,6.5-1.4,7.6-5.1c0.2-0.6,0.7-0.9,1.3-0.9h1.1
				c0.7,0,1.1,0.4,1,1.1c-0.7,4.9-5.2,8.2-11,8.2C261.4,160.6,258.2,159.2,256.4,156.5z M272.9,144.6c0.3,0,0.6-0.2,0.6-0.6
				c0-5.6-2.8-8.7-7.9-8.7c-5,0-8.1,3.3-8.1,8.7c0,0.3,0.2,0.6,0.6,0.6H272.9z"/>
			<path class="st0" d="M284.5,159v-25.1c0-0.6,0.5-1.1,1.1-1.1h0.9c0.3,0,0.6,0.2,0.8,0.4c0.3,0.5,0.6,1.1,1.1,1.1c1.5,0,2-2,7.6-2
				c5.4,0,9.6,3.1,9.6,9.1V159c0,0.6-0.5,1.1-1.1,1.1h-1.1c-0.6,0-1.1-0.5-1.1-1.1v-17.2c0-4.4-3.1-6.3-7.2-6.3s-7.2,2-7.2,6.3V159
				c0,0.6-0.5,1.1-1.1,1.1h-1.1C285,160.1,284.5,159.6,284.5,159z"/>
			<path class="st0" d="M314.8,155.7c-1.8-2.7-2-5.4-2-9.3s0.2-6.6,2-9.3c2-2.9,5.3-4.9,9.6-4.9c3.1,0,5.9,0.8,7.7,2.5
				c1.9,1.8,3,4.3,3,6.8c0,0.6-0.3,1.1-1,1.1h-1.4c-0.5,0-1.1-0.3-1.1-0.9c0-1.8-0.7-3.6-2.1-4.8c-1.3-1-3-1.5-5.1-1.5
				c-3.1,0-5.7,1.5-7,4.2c-0.9,1.8-1,3.6-1,6.8s0.2,5,1,6.8c1.3,2.7,3.9,4.2,7,4.2c2.6,0,4.4-0.8,5.6-2c1.1-1.2,1.6-2.8,1.6-4.2
				c0-0.7,0.6-0.9,1.1-0.9h1.3c0.6,0,1.1,0.5,1.1,1.1c0,2.2-0.9,4.5-2.4,6.2c-1.9,2-4.8,3.1-8.3,3.1
				C320.1,160.6,316.8,158.6,314.8,155.7z"/>
			<path class="st0" d="M342.9,156.5c-1.8-2.7-2.5-5.3-2.5-10.1c0-4.4,0.7-7,2.6-9.9c1.9-2.8,5.1-4.3,9-4.3c7.1,0,11.5,4.6,11.5,12
				v2.5c0,0.6-0.5,1.1-1.1,1.1h-17.9c-0.3,0-0.6,0.2-0.6,0.6c0,5.9,3,9.1,8.2,9.1c3.6,0,6.5-1.4,7.6-5.1c0.2-0.6,0.7-0.9,1.3-0.9
				h1.1c0.7,0,1.1,0.4,1,1.1c-0.7,4.9-5.2,8.2-11,8.2C348,160.6,344.8,159.2,342.9,156.5z M359.5,144.6c0.3,0,0.6-0.2,0.6-0.6
				c0-5.6-2.8-8.7-7.9-8.7c-5,0-8.1,3.3-8.1,8.7c0,0.3,0.2,0.6,0.6,0.6H359.5z"/>
			<path class="st0" d="M369.1,151.1c0-0.6,0.5-1.1,1.1-1.1h1.1c0.6,0,1.1,0.5,1.1,1.1c0,4,2.8,6.4,7.6,6.4c4.7,0,7.5-1.8,7.5-4.8
				s-1.8-4.3-8.2-5.5c-6.3-1.2-9-3.5-9-7.7c0-4.3,4.2-7.3,10-7.3c6.2,0,10.1,3.1,10.1,8.2c0,0.6-0.5,1.1-1.1,1.1h-1.1
				c-0.6,0-1.1-0.5-1.1-1.1c0-3.5-2.2-5.2-6.6-5.2c-4,0-6.4,1.6-6.4,4.3c0,2.5,1.6,3.6,8,5c7,1.6,9.1,3.5,9.1,8.3s-4.3,7.9-10.9,7.9
				C373.3,160.6,369.1,157,369.1,151.1z"/>
		</g>
	</g>
</g>
</svg>
